<svg width="18" height="18" viewBox="0 0 18 18" fill="none" xmlns="http://www.w3.org/2000/svg">
  <rect width="18" height="18" rx="9" fill="#4E868E" />
  <path
    d="M11.3462 5.23486C10.8929 5.23795 10.4463 5.3438 10.0399 5.54443C9.63352 5.74506 9.27795 6.03526 8.99999 6.39313C8.72226 6.03528 8.36692 5.74511 7.96072 5.54446C7.55455 5.34383 7.1081 5.23797 6.65503 5.23486C4.96513 5.23486 3.59134 6.6887 3.59134 8.47901V12.026C3.59134 12.2171 3.66731 12.4005 3.80256 12.5357C3.93779 12.6709 4.12123 12.7469 4.31249 12.7469C4.50375 12.7469 4.68717 12.6709 4.82242 12.5357C4.95768 12.4005 5.03365 12.2171 5.03365 12.026V8.47661C5.03365 7.48172 5.76322 6.6743 6.65985 6.6743C7.55648 6.6743 8.28606 7.48414 8.28606 8.47661V12.0235C8.28606 12.2147 8.36203 12.3981 8.49726 12.5333C8.63252 12.6685 8.81595 12.7445 9.00722 12.7445C9.19848 12.7445 9.38189 12.6685 9.51715 12.5333C9.65238 12.3981 9.72837 12.2147 9.72837 12.0235V8.47661C9.72837 7.48172 10.4579 6.6743 11.3546 6.6743C12.2512 6.6743 12.9808 7.48414 12.9808 8.47661V12.0235C12.9808 12.2147 13.0567 12.3981 13.192 12.5333C13.3272 12.6685 13.5107 12.7445 13.7019 12.7445C13.8932 12.7445 14.0766 12.6685 14.2118 12.5333C14.3471 12.3981 14.4231 12.2147 14.4231 12.0235V8.47661C14.4098 6.6887 13.0361 5.23486 11.3462 5.23486Z"
    fill="white" />
</svg>